<svg xmlns="http://www.w3.org/2000/svg" viewBox="0 0 100 100" width="100" height="100">
  <rect width="100" height="100" fill="#0A0A0A" rx="16"/>
  <path d="M50 10 L82 22 L82 62 Q82 82 50 92 Q18 82 18 62 L18 22 Z" fill="#111111" stroke="#DC2626" stroke-width="2.5"/>
  <path d="M50 20 L74 30 L74 62 Q74 76 50 84 Q26 76 26 62 L26 30 Z" fill="none" stroke="#DC2626" stroke-width="1" opacity="0.5"/>
  <rect x="27" y="36" width="9" height="30" rx="2" fill="white"/>
  <rect x="24" y="36" width="15" height="6" rx="1.5" fill="#DC2626"/>
  <rect x="24" y="60" width="15" height="6" rx="1.5" fill="#DC2626"/>
  <path d="M48 66 L56 36 L64 66" fill="none" stroke="white" stroke-width="7.5" stroke-linejoin="round" stroke-linecap="round"/>
  <line x1="51" y1="54" x2="61" y2="54" stroke="white" stroke-width="5.5" stroke-linecap="round"/>
  <path d="M77 46 Q68 34 60 46 Q53 56 57 66 Q62 76 72 74 L78 74 L78 62 L70 62" fill="none" stroke="white" stroke-width="6.5" stroke-linecap="round" stroke-linejoin="round"/>
</svg>
