<svg xmlns="http://www.w3.org/2000/svg" viewBox="0 0 560 110" width="560" height="110">
  <defs>
    <linearGradient id="redH" x1="0%" y1="0%" x2="100%" y2="100%">
      <stop offset="0%" stop-color="#EF4444"/>
      <stop offset="100%" stop-color="#B91C1C"/>
    </linearGradient>
  </defs>

  <!-- Shield icon -->
  <path d="M55 8 L98 24 L98 65 Q98 90 55 103 Q12 90 12 65 L12 24 Z"
    fill="#111111" stroke="#DC2626" stroke-width="2.2"/>
  <path d="M55 18 L89 32 L89 65 Q89 82 55 94 Q21 82 21 65 L21 32 Z"
    fill="none" stroke="#DC2626" stroke-width="1" opacity="0.35"/>

  <!-- Lightning bolt inside shield -->
  <polygon points="61,28 44,58 56,58 49,84 72,50 59,50" fill="url(#redH)"/>

  <!-- Vertical divider -->
  <rect x="118" y="14" width="2" height="82" rx="1" fill="#DC2626" opacity="0.4"/>

  <!-- INNOVA -->
  <text x="136" y="66"
    font-family="Arial Black, Arial, sans-serif"
    font-weight="900"
    font-size="42"
    fill="white"
    letter-spacing="4">INNOVA</text>

  <!-- ACABADOS GLOBAL -->
  <text x="138" y="88"
    font-family="Arial, sans-serif"
    font-weight="400"
    font-size="13"
    fill="#DC2626"
    letter-spacing="6">ACABADOS GLOBAL</text>

  <!-- Tagline -->
  <text x="138" y="104"
    font-family="Arial, sans-serif"
    font-weight="300"
    font-size="9.5"
    fill="#444444"
    letter-spacing="2">CARROCERÍA · ELECTRÓNICA AUTOMOTRIZ</text>
</svg>
